<svg xmlns="http://www.w3.org/2000/svg" width="300" height="400" viewBox="0 0 300 400"><rect width="100%" height="100%" fill="#DDDDDD"/><path fill="#999999" d="M67.18 192.965h-6.74v4.5h5.69v2.26h-5.69v6.18H57.6v-15.18h9.58v2.24Zm7.59 10.16v-1.82q-1.12.05-1.89.2-.76.14-1.23.36-.46.22-.66.51-.2.3-.2.64 0 .68.41.98.4.29 1.05.29.8 0 1.38-.29.59-.28 1.14-.87Zm-5.48-5.66-.46-.83q1.86-1.7 4.47-1.7.95 0 1.69.31.75.31 1.26.86.52.55.78 1.32.27.76.27 1.68v6.8h-1.17q-.37 0-.57-.11-.2-.11-.32-.45l-.23-.77q-.41.36-.79.64-.39.28-.81.47-.42.19-.9.29-.48.1-1.06.1-.68 0-1.26-.19-.57-.18-.99-.55-.42-.36-.65-.91-.24-.55-.24-1.27 0-.41.14-.81.14-.41.45-.78.31-.36.8-.69.49-.33 1.21-.57.72-.24 1.68-.39.95-.15 2.18-.18v-.63q0-1.09-.46-1.61t-1.33-.52q-.63 0-1.05.15-.41.15-.73.33-.31.19-.57.33-.26.15-.57.15-.28 0-.46-.14-.19-.14-.31-.33Zm10.53-2.33h2.61v10.77h-2.61v-10.77Zm2.96-3.14q0 .33-.13.63-.14.29-.37.51-.22.22-.53.35-.3.13-.65.13-.33 0-.63-.13t-.52-.35q-.22-.22-.35-.51-.13-.3-.13-.63 0-.35.13-.65.13-.31.35-.53.22-.22.52-.35.3-.13.63-.13.35 0 .65.13.31.13.53.35.23.22.37.53.13.3.13.65Zm2.32-1.69h2.6v15.6h-2.6v-15.6Zm7.24 8.97h4.89q0-.5-.14-.95-.14-.44-.43-.78-.28-.33-.71-.53-.44-.19-1.02-.19-1.12 0-1.77.64-.64.64-.82 1.81Zm6.61 1.57h-6.66q.06.83.29 1.43.23.61.61 1t.9.59q.52.19 1.15.19.63 0 1.08-.15.46-.14.8-.32t.6-.33q.26-.14.5-.14.32 0 .48.24l.75.94q-.43.51-.97.85-.53.34-1.12.54-.58.21-1.18.29-.61.09-1.17.09-1.13 0-2.09-.38-.97-.37-1.68-1.1-.72-.73-1.13-1.8-.41-1.08-.41-2.5 0-1.1.36-2.07.36-.97 1.02-1.69.67-.72 1.63-1.14.96-.42 2.17-.42 1.02 0 1.88.32.86.33 1.48.95.62.63.97 1.54t.35 2.07q0 .59-.12.79-.13.21-.49.21Zm9.32 1.87v-4.83q-.44-.54-.96-.76-.52-.22-1.12-.22-.59 0-1.06.22-.48.22-.81.67-.34.44-.52 1.13-.17.69-.17 1.62 0 .95.15 1.61.15.65.43 1.07.29.41.7.6.41.18.91.18.81 0 1.38-.34.56-.33 1.07-.95Zm0-12.41h2.59v15.6h-1.59q-.51 0-.65-.47l-.22-1.04q-.65.74-1.49 1.21-.85.46-1.97.46-.88 0-1.62-.37-.73-.37-1.26-1.07-.53-.69-.82-1.72-.29-1.03-.29-2.36 0-1.19.32-2.22.33-1.03.94-1.79.61-.75 1.46-1.18.85-.42 1.91-.42.9 0 1.54.28t1.15.77v-5.68Zm13.85 15.77q-1.41 0-2.16-.79-.75-.8-.75-2.19v-6.02h-1.1q-.21 0-.36-.14-.15-.13-.15-.41v-1.03l1.73-.28.55-2.94q.05-.21.2-.32.15-.12.38-.12h1.34v3.39h2.88v1.85h-2.88v5.84q0 .5.25.78.24.29.68.29.24 0 .4-.06.16-.06.28-.12.12-.06.22-.12.09-.06.19-.06.11 0 .19.06.07.06.15.17l.78 1.26q-.57.47-1.3.72-.74.24-1.52.24Zm8.98-11.11q1.2 0 2.18.39.98.39 1.68 1.1.7.71 1.08 1.74.38 1.03.38 2.3 0 1.28-.38 2.31t-1.08 1.76q-.7.72-1.68 1.11-.98.39-2.18.39-1.2 0-2.19-.39t-1.69-1.11q-.69-.73-1.08-1.76-.38-1.03-.38-2.31 0-1.27.38-2.3.39-1.03 1.08-1.74.7-.71 1.69-1.1.99-.39 2.19-.39Zm0 9.1q1.35 0 1.99-.9.65-.9.65-2.65 0-1.74-.65-2.65-.64-.92-1.99-.92-1.36 0-2.02.92-.65.92-.65 2.65 0 1.74.65 2.64.66.91 2.02.91Zm12.44-13.76h2.59v15.6h-2.59v-15.6Zm9.95 4.66q1.2 0 2.18.39.98.39 1.68 1.1.7.71 1.08 1.74.37 1.03.37 2.3 0 1.28-.37 2.31-.38 1.03-1.08 1.76-.7.72-1.68 1.11-.98.39-2.18.39-1.21 0-2.19-.39-.99-.39-1.69-1.11-.7-.73-1.08-1.76-.38-1.03-.38-2.31 0-1.27.38-2.3.38-1.03 1.08-1.74.7-.71 1.69-1.1.98-.39 2.19-.39Zm0 9.1q1.34 0 1.99-.9.65-.9.65-2.65 0-1.74-.65-2.65-.65-.92-1.99-.92-1.36 0-2.02.92-.66.92-.66 2.65 0 1.74.66 2.64.66.91 2.02.91Zm12.99-.94v-1.82q-1.12.05-1.89.2-.77.14-1.23.36-.46.22-.66.51-.2.3-.2.64 0 .68.4.98.41.29 1.06.29.8 0 1.38-.29.58-.28 1.14-.87Zm-5.48-5.66-.46-.83q1.85-1.7 4.47-1.7.94 0 1.69.31.74.31 1.26.86.51.55.78 1.32.27.76.27 1.68v6.8h-1.18q-.36 0-.56-.11-.2-.11-.32-.45l-.23-.77q-.41.36-.8.64-.39.28-.81.47-.42.19-.89.29-.48.1-1.06.1-.68 0-1.26-.19-.58-.18-1-.55-.42-.36-.65-.91-.23-.55-.23-1.27 0-.41.14-.81.13-.41.44-.78.31-.36.81-.69.49-.33 1.21-.57.72-.24 1.67-.39.96-.15 2.19-.18v-.63q0-1.09-.46-1.61-.47-.52-1.34-.52-.63 0-1.04.15-.42.15-.73.33-.32.19-.57.33-.26.15-.58.15-.27 0-.46-.14t-.3-.33Zm17.21 5.25v-4.83q-.44-.54-.96-.76-.52-.22-1.12-.22-.59 0-1.06.22-.47.22-.81.67-.34.44-.52 1.13-.17.69-.17 1.62 0 .95.15 1.61.15.65.43 1.07.29.41.7.6.41.18.91.18.81 0 1.38-.34.56-.33 1.07-.95Zm0-12.41h2.59v15.6h-1.58q-.52 0-.66-.47l-.22-1.04q-.65.74-1.49 1.21-.85.46-1.97.46-.88 0-1.62-.37-.73-.37-1.26-1.07-.53-.69-.82-1.72-.29-1.03-.29-2.36 0-1.19.32-2.22.33-1.03.94-1.79.61-.75 1.46-1.18.85-.42 1.91-.42.9 0 1.54.28t1.15.77v-5.68Zm10.34 4.83h2.6v10.77h-2.6v-10.77Zm2.96-3.14q0 .33-.14.63-.13.29-.36.51-.22.22-.53.35-.3.13-.65.13-.34 0-.63-.13-.3-.13-.52-.35-.22-.22-.36-.51-.13-.3-.13-.63 0-.35.13-.65.14-.31.36-.53.22-.22.52-.35.29-.13.63-.13.35 0 .65.13.31.13.53.35.23.22.36.53.14.3.14.65Zm4.88 13.91h-2.59v-10.77h1.59q.5 0 .66.47l.16.8q.29-.32.6-.58.31-.26.66-.45.35-.19.76-.3.4-.11.88-.11 1.02 0 1.68.55.65.55.98 1.46.25-.53.63-.91.38-.39.83-.63.45-.24.96-.36.51-.11 1.02-.11.9 0 1.59.27.69.27 1.16.8.48.52.72 1.28.25.76.25 1.73v6.86h-2.59v-6.86q0-1.03-.45-1.55-.46-.52-1.33-.52-.4 0-.74.14-.34.14-.6.4-.25.25-.4.64-.15.39-.15.89v6.86h-2.6v-6.86q0-1.08-.44-1.57-.43-.5-1.27-.5-.57 0-1.06.28-.49.28-.91.76v7.89Zm20.69-2.78v-1.82q-1.13.05-1.89.2-.77.14-1.23.36-.46.22-.66.51-.2.3-.2.64 0 .68.4.98.41.29 1.06.29.8 0 1.38-.29.58-.28 1.14-.87Zm-5.48-5.66-.46-.83q1.85-1.7 4.47-1.7.94 0 1.69.31.74.31 1.26.86.51.55.78 1.32.27.76.27 1.68v6.8h-1.18q-.36 0-.56-.11-.2-.11-.32-.45l-.23-.77q-.41.36-.8.64-.39.28-.81.47-.42.19-.89.29-.48.1-1.06.1-.68 0-1.26-.19-.58-.18-1-.55-.42-.36-.65-.91-.23-.55-.23-1.27 0-.41.14-.81.13-.41.44-.78.31-.36.81-.69.49-.33 1.21-.57.72-.24 1.67-.39.96-.15 2.19-.18v-.63q0-1.09-.46-1.61-.47-.52-1.34-.52-.63 0-1.04.15-.42.15-.73.33-.32.19-.57.33-.26.15-.58.15-.27 0-.46-.14t-.3-.33Zm14.38 2.79q.49 0 .84-.13.36-.13.6-.36.23-.23.35-.56.12-.32.12-.71 0-.8-.47-1.27-.48-.47-1.44-.47-.95 0-1.43.47t-.48 1.27q0 .37.12.7.12.33.36.56.24.24.6.37t.83.13Zm2.93 6.13q0-.31-.19-.51t-.51-.31q-.33-.11-.76-.16-.44-.06-.93-.08-.49-.03-1-.05-.52-.02-1.02-.08-.43.24-.7.56-.26.33-.26.76 0 .28.14.53t.45.42q.31.18.8.28.5.1 1.21.1.72 0 1.25-.11.52-.11.87-.3.34-.2.49-.46.16-.27.16-.59Zm-.51-10.89h3.09v.97q0 .46-.55.57l-.97.18q.22.55.22 1.21 0 .8-.32 1.45-.32.64-.88 1.09-.57.46-1.34.7-.78.25-1.67.25-.31 0-.61-.03-.29-.03-.57-.09-.51.31-.51.69 0 .32.3.47.3.16.79.22.5.06 1.13.08.63.01 1.29.07.66.05 1.29.18t1.12.42q.5.28.8.77.3.49.3 1.25 0 .72-.36 1.39-.35.67-1.01 1.2-.67.52-1.64.84-.97.32-2.21.32-1.22 0-2.12-.24-.91-.23-1.51-.63-.59-.39-.89-.9-.29-.52-.29-1.07 0-.76.46-1.27.45-.51 1.25-.81-.43-.22-.68-.59-.25-.37-.25-.97 0-.24.08-.5.09-.25.27-.51.17-.25.43-.47.27-.23.62-.41-.82-.44-1.28-1.17-.47-.74-.47-1.73 0-.79.32-1.44.32-.65.89-1.1.57-.46 1.36-.7.78-.24 1.7-.24.7 0 1.3.14.61.14 1.12.41Zm6.78 3.78h4.89q0-.5-.14-.95-.14-.44-.42-.78-.29-.33-.72-.53-.44-.19-1.02-.19-1.12 0-1.77.64-.64.64-.82 1.81Zm6.62 1.57h-6.67q.06.83.29 1.43.23.61.61 1t.9.59q.52.19 1.15.19.63 0 1.09-.15.45-.14.79-.32t.6-.33q.26-.14.5-.14.33 0 .48.24l.75.94q-.43.51-.97.85-.53.34-1.12.54-.58.21-1.18.29-.61.09-1.17.09-1.13 0-2.09-.38-.97-.37-1.68-1.1-.72-.73-1.13-1.8-.41-1.08-.41-2.5 0-1.1.36-2.07.36-.97 1.03-1.69.66-.72 1.62-1.14.96-.42 2.17-.42 1.02 0 1.88.32.86.33 1.48.95.62.63.97 1.54t.35 2.07q0 .59-.12.79-.13.21-.48.21Z"/></svg>